{
    "asset" : {
        "generator" : "Khronos glTF Blender I/O v3.4.49",
        "version" : "2.0"
    },
    "extensionsUsed" : [
        "KHR_materials_specular",
        "KHR_materials_ior"
    ],
    "scene" : 0,
    "scenes" : [
        {
            "name" : "Scene",
            "nodes" : [
                0
            ]
        }
    ],
    "nodes" : [
        {
            "mesh" : 0,
            "name" : "Cylinder",
            "rotation" : [
                0.7071068286895752,
                0,
                0,
                0.7071068286895752
            ]
        }
    ],
    "materials" : [
        {
            "doubleSided" : true,
            "extensions" : {
                "KHR_materials_specular" : {
                    "specularColorFactor" : [
                        1.42281462520241,
                        1.42281462520241,
                        1.42281462520241
                    ]
                },
                "KHR_materials_ior" : {
                    "ior" : 1.4500000476837158
                }
            },
            "name" : "chromeColorWheel",
            "pbrMetallicRoughness" : {
                "baseColorFactor" : [
                    0.800000011920929,
                    0.800000011920929,
                    0.800000011920929,
                    1
                ],
                "metallicFactor" : 0.800000011920929,
                "roughnessFactor" : 0.20000000298023224
            }
        },
        {
            "doubleSided" : true,
            "name" : "rubberColor",
            "pbrMetallicRoughness" : {
                "baseColorFactor" : [
                    0.0012141070328652859,
                    0.0009105801000259817,
                    0.0006070539820939302,
                    1
                ],
                "metallicFactor" : 0,
                "roughnessFactor" : 0.699999988079071
            }
        }
    ],
    "meshes" : [
        {
            "name" : "Cylinder",
            "primitives" : [
                {
                    "attributes" : {
                        "POSITION" : 0,
                        "TEXCOORD_0" : 1,
                        "NORMAL" : 2
                    },
                    "indices" : 3,
                    "material" : 0
                },
                {
                    "attributes" : {
                        "POSITION" : 4,
                        "TEXCOORD_0" : 5,
                        "NORMAL" : 6
                    },
                    "indices" : 7,
                    "material" : 1
                }
            ]
        }
    ],
    "accessors" : [
        {
            "bufferView" : 0,
            "componentType" : 5126,
            "count" : 1674,
            "max" : [
                0.6482670307159424,
                0.3727841079235077,
                0.6482751965522766
            ],
            "min" : [
                -0.6482629776000977,
                -0.3727841079235077,
                -0.6482548117637634
            ],
            "type" : "VEC3"
        },
        {
            "bufferView" : 1,
            "componentType" : 5126,
            "count" : 1674,
            "type" : "VEC2"
        },
        {
            "bufferView" : 2,
            "componentType" : 5126,
            "count" : 1674,
            "type" : "VEC3"
        },
        {
            "bufferView" : 3,
            "componentType" : 5123,
            "count" : 2538,
            "type" : "SCALAR"
        },
        {
            "bufferView" : 4,
            "componentType" : 5126,
            "count" : 488,
            "max" : [
                1,
                0.40891382098197937,
                1
            ],
            "min" : [
                -1,
                -0.40891382098197937,
                -1
            ],
            "type" : "VEC3"
        },
        {
            "bufferView" : 5,
            "componentType" : 5126,
            "count" : 488,
            "type" : "VEC2"
        },
        {
            "bufferView" : 6,
            "componentType" : 5126,
            "count" : 488,
            "type" : "VEC3"
        },
        {
            "bufferView" : 7,
            "componentType" : 5123,
            "count" : 768,
            "type" : "SCALAR"
        }
    ],
    "bufferViews" : [
        {
            "buffer" : 0,
            "byteLength" : 20088,
            "byteOffset" : 0,
            "target" : 34962
        },
        {
            "buffer" : 0,
            "byteLength" : 13392,
            "byteOffset" : 20088,
            "target" : 34962
        },
        {
            "buffer" : 0,
            "byteLength" : 20088,
            "byteOffset" : 33480,
            "target" : 34962
        },
        {
            "buffer" : 0,
            "byteLength" : 5076,
            "byteOffset" : 53568,
            "target" : 34963
        },
        {
            "buffer" : 0,
            "byteLength" : 5856,
            "byteOffset" : 58644,
            "target" : 34962
        },
        {
            "buffer" : 0,
            "byteLength" : 3904,
            "byteOffset" : 64500,
            "target" : 34962
        },
        {
            "buffer" : 0,
            "byteLength" : 5856,
            "byteOffset" : 68404,
            "target" : 34962
        },
        {
            "buffer" : 0,
            "byteLength" : 1536,
            "byteOffset" : 74260,
            "target" : 34963
        }
    ],
    "buffers" : [
        {
            "byteLength" : 75796,
            "uri" : "data:application/octet-stream;base64,"
        }
    ]
}
